<svg width="32" height="32" viewBox="0 0 32 32" fill="none" xmlns="http://www.w3.org/2000/svg">
  <defs>
    <linearGradient id="favGrad" x1="0%" y1="0%" x2="100%" y2="100%">
      <stop offset="0%" style="stop-color:#3B82F6;stop-opacity:1" />
      <stop offset="100%" style="stop-color:#2563EB;stop-opacity:1" />
    </linearGradient>
  </defs>

  <!-- 文档主体 -->
  <rect x="6" y="4" width="20" height="24" rx="3" fill="url(#favGrad)"/>

  <!-- 折角 -->
  <path d="M18 4 L26 12 L26 25 C26 25.6 25.6 26 25 26 L7 26 C6.4 26 6 25.6 6 25 L6 7 C6 6.4 6.4 6 7 6 L18 6Z" fill="white" opacity="0.15"/>
  <path d="M18 4 L18 12 L26 12" fill="white" opacity="0.25"/>

  <!-- 格式线 -->
  <line x1="10" y1="14" x2="22" y2="14" stroke="white" stroke-width="1.5" stroke-linecap="round" opacity="0.95"/>
  <line x1="10" y1="18" x2="22" y2="18" stroke="white" stroke-width="1.5" stroke-linecap="round" opacity="0.85"/>
  <line x1="10" y1="22" x2="18" y2="22" stroke="white" stroke-width="1.5" stroke-linecap="round" opacity="0.85"/>

  <!-- 对勾圆圈 -->
  <circle cx="23" cy="24" r="5" fill="#10B981"/>

  <!-- 对勾 -->
  <path d="M20 24 L22 26 L27 21" stroke="white" stroke-width="1.5" stroke-linecap="round" stroke-linejoin="round" fill="none"/>
</svg>
