<svg width="200" height="200" viewBox="0 0 200 200" fill="none" xmlns="http://www.w3.org/2000/svg">
  <defs>
    <linearGradient id="cleanGrad" x1="0%" y1="0%" x2="100%" y2="100%">
      <stop offset="0%" style="stop-color:#3B82F6;stop-opacity:1" />
      <stop offset="100%" style="stop-color:#2563EB;stop-opacity:1" />
    </linearGradient>
  </defs>

  <!-- 文档主体 -->
  <rect x="50" y="35" width="100" height="130" rx="12" fill="url(#cleanGrad)"/>

  <!-- 文档折角效果 -->
  <path d="M110 35 L150 75 L150 153 C150 157.4 146.4 161 142 161 L58 161 C53.6 161 50 157.4 50 153 L50 47 C50 42.6 53.6 39 58 39 L110 39Z" fill="white" opacity="0.12"/>
  <!-- 折角 - 右上角的白色翻折部分 -->
  <path d="M110 35 L150 75 L110 75 Z" fill="white"/>

  <!-- 格式线 - 更精致 -->
  <line x1="70" y1="85" x2="130" y2="85" stroke="white" stroke-width="3" stroke-linecap="round" opacity="0.95"/>
  <line x1="70" y1="100" x2="130" y2="100" stroke="white" stroke-width="3" stroke-linecap="round" opacity="0.85"/>
  <line x1="70" y1="115" x2="110" y2="115" stroke="white" stroke-width="3" stroke-linecap="round" opacity="0.85"/>

  <!-- 对勾圆圈 - 简洁版 -->
  <circle cx="125" cy="145" r="18" fill="#10B981"/>

  <!-- 对勾 - 更流畅 -->
  <path d="M116 145 L122 151 L136 137" stroke="white" stroke-width="3.5" stroke-linecap="round" stroke-linejoin="round" fill="none"/>
</svg>